<svg xmlns="http://www.w3.org/2000/svg" viewBox="0 0 214 64" role="img" aria-label="doma">
<title>doma horizontal lockup (wordmark outlined, no font dependency)</title>
<g fill="none" stroke-linecap="round" stroke-linejoin="round"><path d="M9 34 L32 13 L55 34" stroke="#1d2320" stroke-width="6"/></g><circle cx="25" cy="47" r="9.5" fill="#1d2320"/><circle cx="39" cy="47" r="9.5" fill="#8c2f24"/><clipPath id="ov"><circle cx="25" cy="47" r="9.5"/></clipPath><circle cx="39" cy="47" r="9.5" fill="#120806" clip-path="url(#ov)"/>
<g transform="translate(76 0) scale(0.052)"><g fill="#1d2320" transform="translate(0 1000) scale(1 -1)">
    <path transform="translate(0.0 0)" d="M261.5 -10Q194.5 -10 141.53911042944785 22.980263157894736Q88.5782208588957 55.96052631578947 58.03911042944785 112.73026315789474Q27.5 169.5 27.5 240.90853658536585Q27.5 313.0914634146341 58.0 369.79573170731703Q88.5 426.5 141.35576923076923 459.75Q194.21153846153845 493 261.5 493Q313.75 493 355.375 471.75Q397 450.5 422.625 413.25Q448.25 376 450 328.5V157Q448.25 109.5 423.0 71.625Q397.75 33.75 355.75 11.875Q313.75 -10 261.5 -10ZM284 111Q321 111 348.28952205882354 127.62332214765101Q375.5790441176471 144.24664429530202 391.03952205882354 173.623322147651Q406.5 203 406.5 241.5Q406.5 280.29009433962267 391.0923913043478 309.4492924528302Q375.6847826086956 338.60849056603774 348.3423913043478 355.3042452830189Q321 372 284.625 372Q248.25 372 220.8080985915493 355.2381516587678Q193.3661971830986 338.47630331753555 177.4330985915493 309.07582938388623Q161.5 279.67535545023696 161.5 241.5Q161.5 203.25 177.189039408867 173.78Q192.87807881773398 144.31 220.74137931034483 127.655Q248.60467980295567 111 284 111ZM530 0H399.75V129.75L420.75 247.5L398.5 364.25V723H530Z"/><path transform="translate(573.0 0)" d="M284.5 -10.5Q211.75 -10.5 153.125 23.0Q94.5 56.5 60.25 114.0Q26 171.5 26 242.5Q26 313.5 60.125 370.0Q94.25 426.5 152.875 460.0Q211.5 493.5 284.25 493.5Q357.75 493.5 416.25 460.375Q474.75 427.25 509.0 370.375Q543.25 313.5 543.25 242.5Q543.25 171.5 509.125 114.0Q475 56.5 416.5 23.0Q358 -10.5 284.5 -10.5ZM284.25 112Q321.25 112 349.5 128.5Q377.75 145 393.375 174.625Q409 204.25 409 242.25Q409 280.25 392.875 309.125Q376.75 338 349.0 354.5Q321.25 371 284.25 371Q248.25 371 220.0 354.375Q191.75 337.75 176.0 308.875Q160.25 280 160.25 242Q160.25 204.25 176.0 174.625Q191.75 145 220.0 128.5Q248.25 112 284.25 112Z"/><path transform="translate(1127.0 0)" d="M57.5 0V483H189V0ZM372.5 0V285Q372.5 327.25 346.25 350.75Q320 374.25 281.25 374.25Q254.75 374.25 234.0 363.625Q213.25 353 201.125 333.125Q189 313.25 189 285L137.75 310Q137.75 366.25 162.375 407.0Q187 447.75 229.0 470.375Q271 493 323.5 493Q374.25 493 415.125 470.5Q456 448 480.0 407.375Q504 366.75 504 310.25V0ZM687.5 0V285Q687.5 327.25 661.25 350.75Q635 374.25 596.25 374.25Q570.5 374.25 549.375 363.625Q528.25 353 516.125 333.125Q504 313.25 504 285L428.75 302.75Q432.5 361.25 459.625 403.625Q486.75 446 530.875 469.5Q575 493 629 493Q682.75 493 725.625 470.25Q768.5 447.5 793.75 405.75Q819 364 819 305.5V0Z"/><path transform="translate(1979.0 0)" d="M259.5 -10Q193.5 -10 140.875 23.0Q88.25 56 57.875 112.75Q27.5 169.5 27.5 240.75Q27.5 312.75 57.875 369.625Q88.25 426.5 140.875 459.75Q193.5 493 259.5 493Q311.5 493 352.5 471.75Q393.5 450.5 418.375 413.25Q443.25 376 445 328.5V154.5Q443.25 107 418.75 69.75Q394.25 32.5 352.875 11.25Q311.5 -10 259.5 -10ZM284 111Q339 111 372.75 147.625Q406.5 184.25 406.5 241.5Q406.5 280 391.25 309.375Q376 338.75 348.5 355.375Q321 372 284.25 372Q248.25 372 220.75 355.375Q193.25 338.75 177.375 309.25Q161.5 279.75 161.5 241.5Q161.5 203.25 177.25 173.75Q193 144.25 220.625 127.625Q248.25 111 284 111ZM399.75 0V129.75L420.75 247.5L399.75 364.25V483H530V0Z"/>
  </g></g>
</svg>
